<?xml version="1.0" encoding="UTF-8"?>
<svg xmlns="http://www.w3.org/2000/svg" viewBox="0 0 1200 240" role="img" aria-hidden="true">
  <title>Decorative chevron field</title>
  <g fill="none" stroke="#B8923A" stroke-linecap="round" stroke-linejoin="round">
    <path d="M50,49 L60,60 L50,71" stroke-width="1.8" opacity="0.18"/>
    <path d="M95,122 L102,130 L95,138" stroke-width="1.4" opacity="0.12"/>
    <path d="M180,170 L189,180 L180,190" stroke-width="1.6" opacity="0.16"/>
    <path d="M210,101 L218,110 L210,119" stroke-width="1.5" opacity="0.13"/>
    <path d="M290,42 L297,50 L290,58" stroke-width="1.4" opacity="0.11"/>
    <path d="M320,132 L332,145 L320,158" stroke-width="2.0" opacity="0.20"/>
    <path d="M365,193 L371,200 L365,207" stroke-width="1.3" opacity="0.08"/>
    <path d="M400,76 L408,85 L400,94" stroke-width="1.5" opacity="0.14"/>
    <path d="M450,157 L457,165 L450,173" stroke-width="1.4" opacity="0.10"/>
    <path d="M490,104 L500,115 L490,126" stroke-width="1.7" opacity="0.16"/>
    <path d="M580,186 L588,195 L580,204" stroke-width="1.5" opacity="0.12"/>
    <path d="M620,118 L631,130 L620,142" stroke-width="1.8" opacity="0.18"/>
    <path d="M720,166 L728,175 L720,184" stroke-width="1.5" opacity="0.13"/>
    <path d="M770,102 L777,110 L770,118" stroke-width="1.4" opacity="0.10"/>
    <path d="M830,63 L836,70 L830,77" stroke-width="1.3" opacity="0.08"/>
    <path d="M880,151 L888,160 L880,169" stroke-width="1.4" opacity="0.11"/>
    <path d="M940,123 L946,130 L940,137" stroke-width="1.3" opacity="0.07"/>
    <path d="M1080,169 L1085,175 L1080,181" stroke-width="1.2" opacity="0.05"/>
  </g>
</svg>
