<?xml version="1.0" encoding="UTF-8" standalone="no"?>
<svg
   viewBox="0 0 191.99999 192"
   role="img"
   aria-labelledby="title desc"
   version="1.1"
   id="svg19"
   xml:space="preserve"
   width="192"
   height="192"
   xmlns="http://www.w3.org/2000/svg"
   xmlns:svg="http://www.w3.org/2000/svg"
   xmlns:rdf="http://www.w3.org/1999/02/22-rdf-syntax-ns#"
   xmlns:cc="http://creativecommons.org/ns#"
   xmlns:dc="http://purl.org/dc/elements/1.1/"><title
     id="title">Peregrine Systems logo concept</title><desc
     id="desc">A stylized peregrine falcon head facing right with a single downward sweeping wing, above the words Peregrine Systems.</desc><defs
     id="defs5"><style
       id="style5">
      .outline{stroke:#f4f7fb;stroke-width:14;stroke-linejoin:round;stroke-linecap:round;}
      .thin{stroke:#f4f7fb;stroke-width:8;stroke-linejoin:round;stroke-linecap:round;}
      .navy{fill:url(#deepNavy);}
      .blue{fill:url(#wingBlue);}
      .white{fill:#f4f7fb;}
      .silver{fill:#b9c4cf;}
      .word{font-family:Montserrat, Avenir Next, Arial, sans-serif;font-weight:800;letter-spacing:5px;}
      .sub{font-family:Montserrat, Avenir Next, Arial, sans-serif;font-weight:500;letter-spacing:16px;}
    </style></defs><!-- Falcon and wing mark --><!-- Wordmark --><metadata
     id="metadata20"><rdf:RDF><cc:Work
         rdf:about=""><dc:title>Peregrine Systems logo concept</dc:title></cc:Work></rdf:RDF></metadata><rect
     style="fill:#58627a;fill-opacity:1;stroke:#58627a;stroke-opacity:1"
     id="rect3-7"
     width="190.90909"
     height="190.90909"
     x="0.62068892"
     y="0.3934277"
     ry="35.454544" /><path
     style="display:inline;fill:#ffffff;fill-opacity:1;stroke:#ffffff;stroke-width:1.01829;stroke-dasharray:none;stroke-opacity:1"
     d="m 1.2379412,51.681782 c 0,0 35.1475298,11.53264 43.6318998,14.53144 10.11008,3.57338 25.99735,7.96098 39.51374,20.72776 9.58308,9.05161 17.416449,17.284688 21.046089,32.626128 2.30421,9.73923 -1.7567,33.56164 -1.7567,33.56164 0,0 -2.24197,-14.5556 -11.330519,-16.43287 -14.56412,-3.0083 -33.16704,5.24166 -47.60821,9.24223 -9.42437,2.61081 -26.68213,-8.40064 -26.68213,-8.40064 0,0 17.99989,-0.0921 27.53638,-3.897 11.91514,-4.754 20.85406,-16.90446 20.85406,-16.90446 0,0 -11.72713,16.89887 -43.47064,16.28518 -5.95622,-0.11521 -13.1815998,-4.14678 -21.7339698,-9.93406 0.0939,-2.27336 0.0409,-5.54775 0,-9.93411 6.54418,1.25747 7.74497,1.63374 13.1111098,1.44001 18.57896,-0.67079 37.20469,-11.78469 37.20469,-11.78469 0,0 -27.13996,10.49843 -50.3157998,6.31291 0.0455,-11.409728 0.0193,-11.506268 0,-23.138638 9.2642198,0.34116 28.5344398,1.23756 28.5344398,1.23756 L 1.2379412,82.422762"
     id="path19-6-3-6" /><path
     style="fill:#ffffff;fill-opacity:1;stroke:#ffffff;stroke-width:0.806645;stroke-dasharray:none;stroke-opacity:1"
     d="m 39.351841,56.520592 24.69533,9.4439 c 0,0 51.421769,-5.45124 53.476139,-1.48863 0.87599,1.68979 -9.87792,0.59729 -20.163179,2.90748 -10.55675,2.37119 -19.23921,6.46194 -19.23921,6.46194 0,0 9.11178,6.08929 13.40251,10.26134 4.24095,4.1237 11.948609,14.34764 11.948609,14.34764 0,0 23.84713,-11.46719 19.43913,-7.45902 -7.21892,6.56421 -9.57809,22.394618 -9.57809,22.394618 0,0 9.61175,-4.6895 23.06951,-8.6213 12.80832,-3.74203 28.58797,-2.68414 23.99769,-1.48539 -4.55462,1.18945 -11.23541,2.18096 -23.75698,10.19165 -14.4797,9.26339 -25.5872,27.17177 -25.5872,27.17177 l 15.16825,5.68883 c 0,0 6.15908,-14.66669 15.83466,-23.17898 5.93549,-5.22182 11.85695,-9.60561 16.51799,-11.59436 3.34952,-1.42913 14.32687,-5.45391 19.82222,-1.34286 3.04519,2.27813 5.35766,6.87346 3.8381,11.99763 6.7288,-10.11378 7.29878,-17.0613 6.1857,-26.019198 -0.37053,-2.98174 -3.78813,-10.68798 -11.46545,-14.43151 0.98831,-6.72082 -3.11532,-12.32427 -6.09754,-16.11007 -9.18379,-11.65817 -24.31704,-16.7957 -30.49837,-18.2451 -14.09102,-3.30416 -28.37608,-2.42653 -37.67555,-1.20531 -13.667039,1.79479 -26.817249,4.7418 -40.583349,6.96722 -7.34866,1.18795 -22.75092,3.34771 -22.75092,3.34771 z"
     id="path20-5-8-0" /></svg>
