<?xml version="1.0" encoding="UTF-8" standalone="no"?>
<svg
   viewBox="0 0 334.0909 130.90907"
   role="img"
   aria-labelledby="title desc"
   version="1.1"
   id="svg19"
   xml:space="preserve"
   width="334.09091"
   height="130.90907"
   xmlns="http://www.w3.org/2000/svg"
   xmlns:svg="http://www.w3.org/2000/svg"
   xmlns:rdf="http://www.w3.org/1999/02/22-rdf-syntax-ns#"
   xmlns:cc="http://creativecommons.org/ns#"
   xmlns:dc="http://purl.org/dc/elements/1.1/"><title
     id="title">Peregrine Systems logo concept</title><desc
     id="desc">A stylized peregrine falcon head facing right with a single downward sweeping wing, above the words Peregrine Systems.</desc><defs
     id="defs5"><style
       id="style5">
      .outline{stroke:#f4f7fb;stroke-width:14;stroke-linejoin:round;stroke-linecap:round;}
      .thin{stroke:#f4f7fb;stroke-width:8;stroke-linejoin:round;stroke-linecap:round;}
      .navy{fill:url(#deepNavy);}
      .blue{fill:url(#wingBlue);}
      .white{fill:#f4f7fb;}
      .silver{fill:#b9c4cf;}
      .word{font-family:Montserrat, Avenir Next, Arial, sans-serif;font-weight:800;letter-spacing:5px;}
      .sub{font-family:Montserrat, Avenir Next, Arial, sans-serif;font-weight:500;letter-spacing:16px;}
    </style></defs><!-- Falcon and wing mark --><!-- Wordmark --><path
     style="display:inline;fill:#58627a;fill-opacity:1;stroke:#58627a;stroke-width:1;stroke-dasharray:none;stroke-opacity:1"
     d="m 18.677803,11.29654 c -0.419152,0.062 24.251641,11.87059 48.521714,17.17929 14.103656,3.08495 63.083313,12.44422 82.776473,17.42809 11.73333,2.96942 30.17139,6.61548 45.85791,17.22444 11.12169,7.52174 20.21276,14.36328 24.42515,27.11179 2.67416,8.09312 -2.03873,27.88915 -2.03873,27.88915 0,0 -2.60196,-12.09546 -13.14971,-13.65544 -16.90245,-2.49983 -38.49219,4.35573 -55.25198,7.68015 -10.93751,2.16953 -30.9661,-6.98079 -30.9661,-6.98079 0,0 20.88987,-0.0765 31.95754,-3.23834 13.82812,-3.95051 24.20227,-14.04735 24.20227,-14.04735 0,0 -13.60998,14.04291 -50.45011,13.53272 -13.825,-0.19145 -46.614523,-19.33219 -46.614523,-19.33219 0,0 24.151843,4.34068 36.607243,4.01868 21.56192,-0.55741 43.17813,-9.79287 43.17813,-9.79287 0,0 -28.28287,8.92177 -55.17972,5.44364 -31.132546,-4.02587 -56.228165,-29.2644 -56.228165,-29.2644 0,0 19.486699,4.56422 29.863868,6.83362 26.517717,5.79918 56.265507,4.0336 56.265507,4.0336 0,0 -30.51681,-2.02029 -54.995708,-7.80101 C 65.094031,52.63935 53.248913,50.21099 40.394653,39.52455 31.219038,31.89635 18.677803,11.29654 18.677803,11.29654 Z"
     id="path19-6" /><path
     style="fill:#d4a841;fill-opacity:1;stroke:#d4a841;stroke-width:0.792158;stroke-dasharray:none;stroke-opacity:1"
     d="m 143.57205,37.84953 28.66031,7.84774 c 0,0 59.67783,-4.52992 62.06201,-1.23705 1.01665,1.40417 -11.46386,0.49634 -23.40047,2.41609 -12.2517,1.9704 -22.32817,5.36975 -22.32817,5.36975 0,0 10.57475,5.0601 15.55436,8.527 4.92187,3.42673 13.86703,11.92262 13.86703,11.92262 0,0 27.6759,-9.52902 22.56017,-6.19828 -8.37794,5.45474 -11.11589,18.60955 -11.11589,18.60955 0,0 11.15498,-3.89692 26.77347,-7.16417 14.86473,-3.10955 33.17789,-2.23049 27.85062,-1.23433 -5.28589,0.98842 -13.0393,1.81235 -27.57129,8.46912 -16.80448,7.6977 -29.69537,22.57928 -29.69537,22.57928 l 17.6036,4.72731 c 0,0 7.14797,-12.18779 18.37701,-19.26135 6.88848,-4.33925 13.76064,-7.9821 19.17004,-9.6347 3.8873,-1.1876 16.62715,-4.53214 23.00478,-1.11592 3.53412,1.89309 6.21787,5.71174 4.45433,9.96984 7.80917,-8.40438 8.47064,-14.17767 7.17886,-21.62153 -0.43001,-2.47779 -4.39634,-8.88151 -13.30628,-11.99233 1.14697,-5.58489 -3.61551,-10.24129 -7.07657,-13.3872 -10.6583,-9.68776 -28.22125,-13.95695 -35.39501,-15.1614 -16.35342,-2.74568 -32.93204,-2.01641 -43.72459,-1.00158 -15.86138,1.49145 -31.1229,3.94035 -47.09923,5.78964 -8.52854,0.98718 -26.40372,2.7819 -26.40372,2.7819 z"
     id="path20-5" /><metadata
     id="metadata20"><rdf:RDF><cc:Work
         rdf:about=""><dc:title>Peregrine Systems logo concept</dc:title></cc:Work></rdf:RDF></metadata></svg>
