<?xml version="1.0" encoding="UTF-8"?>
<svg xmlns="http://www.w3.org/2000/svg" viewBox="0 0 1200 240" role="img" aria-hidden="true">
  <title>Decorative slipstream</title>
  <g stroke="#B8923A" stroke-linecap="round" fill="none">
    <line x1="30" y1="90" x2="170" y2="95.6" stroke-width="1.1" opacity="0.13"/>
    <line x1="75" y1="165" x2="165" y2="169.5" stroke-width="1.0" opacity="0.10"/>
    <line x1="130" y1="60" x2="240" y2="63.3" stroke-width="1.0" opacity="0.11"/>
    <line x1="200" y1="135" x2="360" y2="141.4" stroke-width="1.2" opacity="0.16"/>
    <line x1="260" y1="95" x2="340" y2="97.4" stroke-width="0.9" opacity="0.08"/>
    <line x1="315" y1="180" x2="445" y2="186.5" stroke-width="1.1" opacity="0.12"/>
    <line x1="390" y1="115" x2="480" y2="118.6" stroke-width="1.0" opacity="0.09"/>
    <line x1="450" y1="150" x2="630" y2="157.2" stroke-width="1.3" opacity="0.18"/>
    <line x1="520" y1="70" x2="610" y2="72.7" stroke-width="0.9" opacity="0.09"/>
    <line x1="605" y1="135" x2="755" y2="141.0" stroke-width="1.1" opacity="0.14"/>
    <line x1="680" y1="180" x2="770" y2="184.5" stroke-width="1.0" opacity="0.10"/>
    <line x1="725" y1="90" x2="845" y2="93.6" stroke-width="1.0" opacity="0.10"/>
    <line x1="800" y1="140" x2="970" y2="146.8" stroke-width="1.2" opacity="0.16"/>
    <line x1="880" y1="105" x2="980" y2="108.0" stroke-width="1.0" opacity="0.09"/>
    <line x1="950" y1="165" x2="1060" y2="169.4" stroke-width="1.0" opacity="0.11"/>
    <line x1="1030" y1="85" x2="1120" y2="87.7" stroke-width="0.9" opacity="0.08"/>
    <line x1="1090" y1="140" x2="1180" y2="143.6" stroke-width="1.0" opacity="0.09"/>
  </g>
</svg>
